<svg width="24" height="24" viewBox="0 0 24 24" fill="none" xmlns="http://www.w3.org/2000/svg">
<path d="M14.6785 5.0784C15.2412 4.51572 16.0043 4.19961 16.8001 4.19961C17.5959 4.19961 18.359 4.51572 18.9217 5.0784C19.4844 5.64108 19.8005 6.40425 19.8005 7.2C19.8005 7.99576 19.4844 8.75892 18.9217 9.3216L17.4517 10.7904C17.2878 10.9602 17.1972 11.1876 17.1994 11.4236C17.2015 11.6596 17.2963 11.8852 17.4633 12.052C17.6302 12.2188 17.856 12.3134 18.092 12.3153C18.3279 12.3172 18.5552 12.2264 18.7249 12.0624L20.1937 10.5936C21.0681 9.68831 21.5519 8.47582 21.5409 7.21728C21.53 5.95873 21.0252 4.75483 20.1352 3.86487C19.2453 2.97491 18.0414 2.4701 16.7828 2.45917C15.5243 2.44823 14.3118 2.93204 13.4065 3.8064L9.8065 7.4064C9.33891 7.87403 8.97299 8.43323 8.7317 9.04894C8.4904 9.66464 8.37893 10.3236 8.40429 10.9844C8.42964 11.6452 8.59126 12.2936 8.87902 12.889C9.16677 13.4844 9.57446 14.014 10.0765 14.4444C10.2581 14.596 10.492 14.67 10.7278 14.6504C10.9635 14.6309 11.1821 14.5193 11.3362 14.3398C11.4902 14.1603 11.5675 13.9274 11.5511 13.6914C11.5348 13.4554 11.4262 13.2353 11.2489 13.0788C10.9347 12.8099 10.6796 12.4789 10.4994 12.1067C10.3193 11.7345 10.218 11.3291 10.202 10.9158C10.186 10.5026 10.2556 10.0906 10.4065 9.70553C10.5573 9.3205 10.7861 8.9708 11.0785 8.6784L14.6785 5.0784Z" fill="#677487"/>
<path d="M13.9236 9.55562C13.7421 9.40402 13.5081 9.33001 13.2724 9.34959C13.0366 9.36917 12.8181 9.48077 12.664 9.66024C12.5099 9.83972 12.4327 10.0726 12.449 10.3086C12.4653 10.5446 12.5739 10.7647 12.7512 10.9212C13.0654 11.1901 13.3206 11.5211 13.5007 11.8933C13.6809 12.2655 13.7821 12.671 13.7981 13.0842C13.8141 13.4974 13.7445 13.9095 13.5937 14.2945C13.4429 14.6795 13.2141 15.0292 12.9216 15.3216L9.32165 18.9216C8.75897 19.4843 7.9958 19.8004 7.20005 19.8004C6.40429 19.8004 5.64113 19.4843 5.07845 18.9216C4.51576 18.3589 4.19965 17.5958 4.19965 16.8C4.19965 16.0043 4.51576 15.2411 5.07845 14.6784L6.54845 13.2096C6.71231 13.0398 6.80292 12.8124 6.80076 12.5764C6.7986 12.3405 6.70384 12.1148 6.53689 11.948C6.36995 11.7812 6.14417 11.6867 5.90819 11.6847C5.67221 11.6828 5.44491 11.7736 5.27525 11.9376L3.80645 13.4064C3.348 13.8492 2.98232 14.3789 2.73076 14.9645C2.4792 15.5501 2.34678 16.18 2.34125 16.8173C2.33571 17.4546 2.45716 18.0867 2.6985 18.6766C2.93985 19.2665 3.29627 19.8024 3.74695 20.2531C4.19764 20.7038 4.73357 21.0602 5.32347 21.3016C5.91337 21.5429 6.54543 21.6644 7.18277 21.6588C7.82011 21.6533 8.44997 21.5209 9.03559 21.2693C9.62121 21.0177 10.1509 20.6521 10.5936 20.1936L14.1936 16.5936C14.6612 16.126 15.0272 15.5668 15.2684 14.9511C15.5097 14.3354 15.6212 13.6765 15.5959 13.0157C15.5705 12.3548 15.4089 11.7064 15.1211 11.111C14.8334 10.5156 14.4257 9.98605 13.9236 9.55562Z" fill="#677487"/>
</svg>
