<svg width="24" height="24" viewBox="0 0 24 24" fill="none" xmlns="http://www.w3.org/2000/svg">
<path d="M3.71429 3C3.09934 2.99996 2.50261 3.20873 2.02182 3.59213C1.54103 3.97553 1.20468 4.51083 1.06786 5.11036L11.8571 11.7047L22.6464 5.11036C22.5096 4.51083 22.1733 3.97553 21.6925 3.59213C21.2117 3.20873 20.6149 2.99996 20 3H3.71429ZM1 16.3V6.66157L8.8755 11.474L1 16.3ZM10.1756 12.2693L1.25921 17.7331C1.47932 18.1979 1.82694 18.5906 2.26158 18.8655C2.69623 19.1404 3.20002 19.2861 3.71429 19.2857H12.2046C11.9739 18.6318 11.8564 17.9434 11.8571 17.25C11.8562 16.3585 12.0509 15.4776 12.4275 14.6696C12.8041 13.8615 13.3534 13.1459 14.0367 12.5733L13.5386 12.2679L11.8571 13.2953L10.1756 12.2693ZM22.7143 13.4106V6.66021L14.8388 11.4726L15.2975 11.7549C16.1284 11.351 17.0404 11.1417 17.9643 11.1429C19.8833 11.1429 21.5946 12.0277 22.7143 13.4106Z" fill="#677487"/>
<path d="M22.4889 16.9026C22.4889 18.4877 21.7059 19.6508 20.3352 19.6508C19.6525 19.6508 18.9753 19.3414 18.8152 18.7714H18.7568C18.5967 19.3359 18.0199 19.644 17.3793 19.644C16.3343 19.644 15.6707 18.9084 15.6707 17.6979V16.9799C15.6707 15.8345 16.3234 15.0799 17.3807 15.0799C18.1746 15.0799 18.5614 15.5319 18.674 15.9349H18.7147V15.1641H19.9429V18.1362C19.9429 18.5054 20.1872 18.7062 20.5007 18.7062C20.9282 18.7062 21.3679 18.143 21.3679 16.8198V16.6596C21.3679 14.9266 20.0787 13.5029 17.9968 13.5029H17.9425C15.7955 13.5029 14.3597 14.951 14.3597 17.1998V17.4129C14.3597 19.9466 16.0384 21.0147 17.8475 21.0147H17.9086C18.5967 21.0147 19.1775 20.9197 19.51 20.7704V21.7625C19.2128 21.8982 18.6374 22 17.8312 22H17.7715C15.1658 22 13.2142 20.3986 13.2142 17.4481V17.1577C13.2142 14.3457 15.1427 12.5 17.9439 12.5H17.9914C20.8685 12.5 22.4889 14.4407 22.4889 16.6176V16.9026ZM17.0061 17.1876V17.4956C17.0061 18.2909 17.3142 18.5814 17.7946 18.5814C18.2153 18.5814 18.56 18.3506 18.56 17.573V17.0749C18.56 16.3746 18.1868 16.1141 17.7837 16.1141C17.3142 16.1141 17.0061 16.4466 17.0061 17.1876Z" fill="#677487"/>
</svg>
