<svg width="24" height="24" viewBox="0 0 24 24" fill="none" xmlns="http://www.w3.org/2000/svg">
<g clip-path="url(#clip0_402_1561)">
<path fill-rule="evenodd" clip-rule="evenodd" d="M11.79 24.101L11.86 24.141L11.888 24.157C11.999 24.217 12.1233 24.2485 12.2495 24.2485C12.3757 24.2485 12.5 24.217 12.611 24.157L12.639 24.142L12.71 24.101C13.1011 23.8691 13.4828 23.6216 13.854 23.359C14.8151 22.6805 15.713 21.9167 16.537 21.077C18.481 19.087 20.5 16.097 20.5 12.25C20.5 10.062 19.6308 7.96354 18.0836 6.41637C16.5365 4.86919 14.438 4 12.25 4C10.062 4 7.96354 4.86919 6.41637 6.41637C4.86919 7.96354 4 10.062 4 12.25C4 16.096 6.02 19.087 7.963 21.077C8.78664 21.9167 9.68427 22.6804 10.645 23.359C11.0166 23.6216 11.3985 23.8691 11.79 24.101ZM12.25 15.25C13.0456 15.25 13.8087 14.9339 14.3713 14.3713C14.9339 13.8087 15.25 13.0456 15.25 12.25C15.25 11.4544 14.9339 10.6913 14.3713 10.1287C13.8087 9.56607 13.0456 9.25 12.25 9.25C11.4544 9.25 10.6913 9.56607 10.1287 10.1287C9.56607 10.6913 9.25 11.4544 9.25 12.25C9.25 13.0456 9.56607 13.8087 10.1287 14.3713C10.6913 14.9339 11.4544 15.25 12.25 15.25Z" fill="#677487"/>
</g>
<defs>
<clipPath id="clip0_402_1561">
<rect width="24" height="24" fill="white"/>
</clipPath>
</defs>
</svg>
