<svg width="24" height="24" viewBox="0 0 24 24" fill="none" xmlns="http://www.w3.org/2000/svg">
<path fill-rule="evenodd" clip-rule="evenodd" d="M2.40003 4.20002C2.40003 3.72263 2.58967 3.2648 2.92723 2.92723C3.2648 2.58967 3.72264 2.40002 4.20003 2.40002H5.57763C5.98739 2.39985 6.38494 2.53949 6.70459 2.79586C7.02424 3.05224 7.24685 3.41 7.33563 3.81002L8.19483 7.67762C8.29414 8.12537 8.21879 8.59413 7.98418 8.9882C7.74956 9.38228 7.37338 9.67193 6.93243 9.79802L5.81283 10.1184C5.32083 10.2588 5.04123 10.7844 5.23683 11.2584C5.93293 12.9413 6.95408 14.4704 8.24186 15.7582C9.52963 17.046 11.0587 18.0671 12.7416 18.7632C13.2156 18.9588 13.7412 18.6792 13.8816 18.1872L14.202 17.0676C14.3281 16.6267 14.6178 16.2505 15.0118 16.0159C15.4059 15.7813 15.8747 15.7059 16.3224 15.8052L20.19 16.6644C20.5901 16.7532 20.9478 16.9758 21.2042 17.2955C21.4606 17.6151 21.6002 18.0127 21.6 18.4224V19.8C21.6 20.2774 21.4104 20.7353 21.0728 21.0728C20.7353 21.4104 20.2774 21.6 19.8 21.6H18C16.6212 21.6 15.2844 21.42 14.0088 21.084C11.3461 20.377 8.91762 18.9786 6.96955 17.0305C5.02147 15.0824 3.62305 12.654 2.91603 9.99122C2.57268 8.68863 2.39924 7.34711 2.40003 6.00002V4.20002Z" fill="#677487"/>
</svg>
